<svg width="38" height="24" viewBox="0 0 38 24" fill="none" xmlns="http://www.w3.org/2000/svg">
<path d="M33.8213 0H3.69963C1.65731 0.00227861 0.00227861 1.65731 0 3.69963V20.3004C0.00227861 22.3426 1.65731 23.9977 3.69963 24H33.8213C35.8637 23.9978 37.5188 22.3428 37.5211 20.3004V3.69963C37.5188 1.65731 35.8637 0.00227861 33.8213 0ZM25.2792 12L35.9475 3.01445C36.0191 3.23578 36.0555 3.46698 36.0555 3.69955V20.3003C36.0555 20.5329 36.0191 20.7641 35.9476 20.9854L25.2792 12ZM33.8213 1.46568C34.2635 1.46522 34.6957 1.5967 35.0628 1.84332L18.7606 15.5743L2.45832 1.84332C2.82533 1.5967 3.25758 1.46522 3.6997 1.46575L33.8213 1.46568ZM1.57368 20.9857C1.50206 20.7643 1.46568 20.5331 1.46575 20.3004V3.69963C1.46568 3.46706 1.50214 3.23578 1.57368 3.01445L12.2418 12L1.57368 20.9857ZM3.69963 22.5344C3.25758 22.535 2.82533 22.4036 2.45832 22.1571L13.3794 12.9585L18.2884 17.0932C18.5612 17.3229 18.9599 17.3229 19.2326 17.0932L24.1417 12.9585L35.0627 22.1567C34.6956 22.4033 34.2634 22.5349 33.8212 22.5343H3.69963V22.5344Z" fill="#FAC800"/>
</svg>
