<svg width="16" height="16" viewBox="0 0 16 16" fill="none" xmlns="http://www.w3.org/2000/svg">
<g clip-path="url(#clip0_58_494)">
<path d="M9.46585 8.0131L15.6959 1.77773C16.1014 1.37214 16.1014 0.716366 15.6959 0.310781C15.2907 -0.0948045 14.6354 -0.0948045 14.2302 0.310781L7.99991 6.54615L1.76983 0.310781C1.36438 -0.0948045 0.709336 -0.0948045 0.304082 0.310781C-0.101361 0.716366 -0.101361 1.37214 0.304082 1.77773L6.53416 8.0131L0.304082 14.2485C-0.101361 14.6541 -0.101361 15.3098 0.304082 15.7154C0.506045 15.9177 0.771595 16.0194 1.03695 16.0194C1.30232 16.0194 1.56768 15.9177 1.76983 15.7154L7.99991 9.48004L14.2302 15.7154C14.4323 15.9177 14.6977 16.0194 14.9631 16.0194C15.2284 16.0194 15.4938 15.9177 15.6959 15.7154C16.1014 15.3098 16.1014 14.6541 15.6959 14.2485L9.46585 8.0131Z" fill="white"/>
</g>
<defs>
<clipPath id="clip0_58_494">
<rect width="16" height="16" fill="white"/>
</clipPath>
</defs>
</svg>
