<svg width="60" height="60" viewBox="0 0 60 60" fill="none" xmlns="http://www.w3.org/2000/svg">
<g clip-path="url(#clip0_71_170)">
<path d="M30 0C13.4585 0 0 13.4573 0 30C0 46.5427 13.4585 60 30 60C46.5415 60 60 46.5427 60 30C60 13.4573 46.5415 0 30 0ZM46.725 19.995L28.2635 40.7642C27.8088 41.2754 27.1754 41.5385 26.5373 41.5385C26.0308 41.5385 25.5219 41.3723 25.0962 41.0331L13.5577 31.8023C12.5631 31.0073 12.4015 29.5546 13.1977 28.5588C13.9927 27.5631 15.4465 27.4015 16.4412 28.1977L26.2685 36.0588L43.275 16.9269C44.1196 15.9738 45.5804 15.8885 46.5323 16.7354C47.4854 17.5835 47.5719 19.0419 46.725 19.995Z" fill="#17A52E"/>
</g>
<defs>
<clipPath id="clip0_71_170">
<rect width="60" height="60" fill="white"/>
</clipPath>
</defs>
</svg>
