<svg width="60" height="60" viewBox="0 0 60 60" fill="none" xmlns="http://www.w3.org/2000/svg">
<g clip-path="url(#clip0_71_167)">
<path d="M51.2234 8.77689C39.5215 -2.92505 20.48 -2.92621 8.77689 8.77689C-2.92621 20.48 -2.92505 39.5203 8.77689 51.2234C20.4788 62.9265 39.5203 62.9265 51.2234 51.2234C62.9253 39.5203 62.9253 20.4788 51.2234 8.77689ZM41.836 41.836C40.9344 42.7376 39.473 42.7376 38.5714 41.836L30.0001 33.2647L21.0214 42.2435C20.1198 43.1451 18.6584 43.1451 17.7568 42.2435C16.8552 41.3419 16.8552 39.8805 17.7568 38.9789L26.7356 30.0001L18.1643 21.4289C17.2627 20.5273 17.2627 19.0647 18.1643 18.1643C19.0659 17.2627 20.5273 17.2627 21.4289 18.1643L30.0001 26.7356L38.1628 18.5729C39.0643 17.6714 40.5258 17.6714 41.4273 18.5729C42.3289 19.4745 42.3289 20.936 41.4273 21.8375L33.2647 30.0001L41.836 38.5714C42.7376 39.473 42.7376 40.9344 41.836 41.836Z" fill="#F32F2F"/>
</g>
<defs>
<clipPath id="clip0_71_167">
<rect width="60" height="60" fill="white"/>
</clipPath>
</defs>
</svg>
