<?xml version="1.0" encoding="utf-8"?><svg viewBox="0 0 60 60" xmlns="http://www.w3.org/2000/svg" xmlns:xlink="http://www.w3.org/1999/xlink"><style>:root>svg{display:none}:root>svg:target{display:block}</style><svg viewBox="0 0 20 16" id="icon-burger" xmlns="http://www.w3.org/2000/svg"><rect width="20" height="2" rx="1"/><rect y="7" width="20" height="2" rx="1"/><rect y="14" width="20" height="2" rx="1"/></svg><svg viewBox="0 0 16 16" id="icon-close" xmlns="http://www.w3.org/2000/svg"><g clip-path="url(#ba)"><path d="M9.466 8.013l6.23-6.235A1.037 1.037 0 1014.23.31L8 6.546 1.77.311A1.037 1.037 0 10.304 1.778l6.23 6.235-6.23 6.236a1.037 1.037 0 101.466 1.466L8 9.48l6.23 6.235a1.033 1.033 0 001.466 0 1.036 1.036 0 000-1.466l-6.23-6.236z"/></g><defs><clipPath id="ba"><path d="M0 0h16v16H0z"/></clipPath></defs></svg><svg viewBox="0 0 60 60" id="icon-error" xmlns="http://www.w3.org/2000/svg"><g clip-path="url(#ca)"><path d="M51.223 8.777C39.522-2.925 20.48-2.926 8.777 8.777s-11.702 30.743 0 42.446 30.743 11.703 42.446 0c11.702-11.703 11.702-30.744 0-42.446zm-9.387 33.059a2.308 2.308 0 01-3.265 0l-8.57-8.571-8.98 8.978a2.308 2.308 0 11-3.264-3.264L26.736 30l-8.572-8.571a2.308 2.308 0 113.265-3.265L30 26.736l8.163-8.163a2.308 2.308 0 113.264 3.264L33.265 30l8.571 8.571a2.308 2.308 0 010 3.265z"/></g><defs><clipPath id="ca"><path d="M0 0h60v60H0z"/></clipPath></defs></svg><svg viewBox="0 0 38 24" id="icon-mail" xmlns="http://www.w3.org/2000/svg"><path d="M33.821 0H3.7A3.704 3.704 0 000 3.7v16.6A3.704 3.704 0 003.7 24h30.12a3.704 3.704 0 003.7-3.7V3.7a3.704 3.704 0 00-3.7-3.7zM25.28 12l10.668-8.986c.072.222.108.453.108.686v16.6c0 .233-.036.464-.107.685L25.279 12zm8.542-10.534c.443 0 .875.13 1.242.377L18.76 15.574 2.458 1.844c.367-.247.8-.379 1.242-.378h30.12zM1.574 20.986a2.224 2.224 0 01-.108-.686V3.7c0-.233.036-.464.108-.686L12.242 12 1.574 20.986zM3.7 22.534a2.216 2.216 0 01-1.242-.377L13.38 12.96l4.91 4.134c.272.23.67.23.944 0l4.909-4.134 10.92 9.198a2.217 2.217 0 01-1.24.377H3.7z"/></svg><svg viewBox="0 0 32 32" id="icon-phone" xmlns="http://www.w3.org/2000/svg"><path d="M6.485 21.271c3.168 3.773 6.982 6.744 11.335 8.846 1.657.782 3.873 1.71 6.343 1.87.153.006.3.013.452.013 1.658 0 2.989-.57 4.074-1.744.006-.006.02-.02.026-.033.386-.464.826-.882 1.285-1.326.313-.299.632-.61.938-.928 1.418-1.473 1.418-3.342-.013-4.768l-4-3.985c-.679-.703-1.491-1.074-2.343-1.074-.852 0-1.67.371-2.37 1.067l-2.382 2.374a12.37 12.37 0 00-.66-.345 8.223 8.223 0 01-.731-.398c-2.17-1.372-4.14-3.162-6.024-5.463-.952-1.2-1.59-2.208-2.037-3.236a39.975 39.975 0 001.777-1.73c.2-.206.407-.412.613-.617.719-.716 1.105-1.545 1.105-2.387 0-.843-.38-1.671-1.105-2.388l-1.984-1.975c-.233-.233-.452-.458-.679-.69a36.47 36.47 0 00-1.35-1.333C8.068.351 7.262 0 6.41 0c-.845 0-1.657.351-2.369 1.028l-2.49 2.48A5.087 5.087 0 00.029 6.77c-.126 1.585.167 3.269.926 5.305 1.164 3.15 2.922 6.073 5.53 9.196zM1.652 6.91a3.5 3.5 0 011.059-2.254l2.476-2.467c.386-.371.812-.563 1.224-.563.406 0 .82.192 1.199.576.445.412.865.843 1.317 1.3.227.232.46.464.693.703l1.983 1.976c.413.411.626.829.626 1.24 0 .41-.213.829-.626 1.24-.206.205-.413.418-.619.623-.619.623-1.198 1.213-1.837 1.777l-.033.033c-.553.55-.466 1.074-.333 1.472l.02.053c.512 1.227 1.225 2.394 2.336 3.786 1.997 2.454 4.1 4.357 6.416 5.822.287.186.593.332.879.478.266.132.513.258.732.398.027.013.047.026.073.04.22.112.433.165.646.165.532 0 .879-.338.992-.45l2.489-2.48c.386-.385.805-.59 1.218-.59.506 0 .918.31 1.178.59l4.014 3.991c.798.796.792 1.658-.02 2.5-.28.298-.573.583-.886.882-.465.45-.951.915-1.39 1.439-.766.822-1.678 1.206-2.856 1.206-.113 0-.233-.006-.346-.013-2.183-.14-4.213-.988-5.738-1.71-4.14-1.997-7.774-4.828-10.789-8.422-2.482-2.977-4.153-5.748-5.258-8.72-.685-1.823-.945-3.288-.839-4.62z"/></svg><svg viewBox="0 0 60 60" id="icon-success" xmlns="http://www.w3.org/2000/svg"><g clip-path="url(#fa)"><path d="M30 0C13.459 0 0 13.457 0 30s13.459 30 30 30 30-13.457 30-30S46.541 0 30 0zm16.725 19.995l-18.462 20.77a2.306 2.306 0 01-3.167.269l-11.538-9.232a2.308 2.308 0 012.883-3.604l9.828 7.86 17.006-19.131a2.31 2.31 0 013.45 3.068z"/></g><defs><clipPath id="fa"><path d="M0 0h60v60H0z"/></clipPath></defs></svg><svg viewBox="0 0 14 14" id="icon-zoom-in" xmlns="http://www.w3.org/2000/svg"><path d="M14 8H8v6H6V8H0V6h6V0h2v6h6v2z"/></svg><svg viewBox="0 0 14 2" id="icon-zoom-out" xmlns="http://www.w3.org/2000/svg"><path d="M14 2H0V0h14v2z"/></svg></svg>